<svg width="56" height="56" viewBox="0 0 56 56" fill="none" xmlns="http://www.w3.org/2000/svg">
<path opacity="0.3" d="M50.5398 24.3602L48.2531 34.1135C46.2931 42.5368 42.4198 45.9435 35.1398 45.2435C33.9731 45.1502 32.7131 44.9402 31.3598 44.6135L27.4398 43.6802C17.7098 41.3702 14.6998 36.5635 16.9864 26.8102L19.2731 17.0335C19.7398 15.0502 20.2998 13.3235 20.9998 11.9002C23.7298 6.25351 28.3731 4.73685 36.1664 6.58018L40.0631 7.49018C49.8398 9.77685 52.8264 14.6068 50.5398 24.3602Z" fill="#6243FF"/>
<path d="M35.1408 45.2432C33.6941 46.2232 31.8741 47.0399 29.6575 47.7632L25.9708 48.9766C16.7075 51.9632 11.8308 49.4666 8.8208 40.2032L5.83413 30.9866C2.84746 21.7232 5.3208 16.8232 14.5841 13.8366L18.2708 12.6232C19.2275 12.3199 20.1375 12.0632 21.0008 11.8999C20.3008 13.3232 19.7408 15.0499 19.2741 17.0332L16.9875 26.8099C14.7008 36.5632 17.7108 41.3699 27.4408 43.6799L31.3608 44.6132C32.7141 44.9399 33.9741 45.1499 35.1408 45.2432Z" fill="url(#paint0_linear_1124_26)"/>
<path d="M40.8092 24.5233C40.6692 24.5233 40.5292 24.5 40.3659 24.4766L29.0492 21.6066C28.1159 21.3733 27.5559 20.4166 27.7892 19.4833C28.0226 18.55 28.9792 17.99 29.9126 18.2233L41.2292 21.0933C42.1626 21.3266 42.7225 22.2833 42.4892 23.2166C42.3025 23.9866 41.5792 24.5233 40.8092 24.5233Z" fill="#6243FF"/>
<path d="M33.974 32.4102C33.834 32.4102 33.694 32.3869 33.5306 32.3636L26.7406 30.6369C25.8073 30.4036 25.2473 29.4469 25.4806 28.5136C25.714 27.5802 26.6706 27.0202 27.604 27.2536L34.394 28.9802C35.3273 29.2136 35.8873 30.1702 35.654 31.1036C35.4673 31.8969 34.7673 32.4102 33.974 32.4102Z" fill="#6243FF"/>
<defs>
<linearGradient id="paint0_linear_1124_26" x1="19.8878" y1="11.8999" x2="19.8878" y2="50.1719" gradientUnits="userSpaceOnUse">
<stop stop-color="#AD9DFF"/>
<stop offset="1" stop-color="#6243FF"/>
</linearGradient>
</defs>
</svg>
