<svg width="56" height="56" viewBox="0 0 56 56" fill="none" xmlns="http://www.w3.org/2000/svg">
<path opacity="0.3" d="M46.666 28.4664V32.4331C46.666 39.7831 42.466 42.9331 36.166 42.9331H15.166C8.86602 42.9331 4.66602 39.7831 4.66602 32.4331V19.833C4.66602 12.483 8.86602 9.33301 15.166 9.33301H21.466C21.1627 10.2197 20.9993 11.1997 20.9993 12.2497V21.3497C20.9993 23.6131 21.746 25.5264 23.076 26.8564C24.406 28.1864 26.3193 28.9331 28.5827 28.9331V32.1763C28.5827 33.3663 29.936 34.0897 30.9393 33.4364L37.6827 28.9331H43.7493C44.7993 28.9331 45.7793 28.7697 46.666 28.4664Z" fill="#6243FF"/>
<path d="M51.3333 12.2503V21.3504C51.3333 24.827 49.56 27.4404 46.6667 28.467C45.78 28.7704 44.8 28.9337 43.75 28.9337H37.6833L30.94 33.437C29.9367 34.0904 28.5833 33.3669 28.5833 32.1769V28.9337C26.32 28.9337 24.4067 28.187 23.0767 26.857C21.7467 25.527 21 23.6137 21 21.3504V12.2503C21 11.2003 21.1633 10.2203 21.4667 9.33366C22.4933 6.44033 25.1067 4.66699 28.5833 4.66699H43.75C48.3 4.66699 51.3333 7.70033 51.3333 12.2503Z" fill="url(#paint0_linear_1068_262)"/>
<path opacity="0.4" d="M34.0676 49.5835H27.4176V42.9336C27.4176 41.9769 26.6242 41.1836 25.6676 41.1836C24.7109 41.1836 23.9176 41.9769 23.9176 42.9336V49.5835H17.2676C16.3109 49.5835 15.5176 50.3769 15.5176 51.3335C15.5176 52.2902 16.3109 53.0835 17.2676 53.0835H34.0676C35.0242 53.0835 35.8176 52.2902 35.8176 51.3335C35.8176 50.3769 35.0242 49.5835 34.0676 49.5835Z" fill="url(#paint1_linear_1068_262)"/>
<path d="M36.0273 18.667C35.0473 18.667 34.2773 17.8737 34.2773 16.917C34.2773 15.9603 35.0707 15.167 36.0273 15.167C36.984 15.167 37.7773 15.9603 37.7773 16.917C37.7773 17.8737 36.984 18.667 36.0273 18.667Z" fill="white"/>
<path d="M42.584 18.667C41.604 18.667 40.834 17.8737 40.834 16.917C40.834 15.9603 41.6273 15.167 42.584 15.167C43.5407 15.167 44.334 15.9603 44.334 16.917C44.334 17.8737 43.5407 18.667 42.584 18.667Z" fill="white"/>
<path d="M29.4473 18.667C28.4673 18.667 27.6973 17.8737 27.6973 16.917C27.6973 15.9603 28.4906 15.167 29.4473 15.167C30.4039 15.167 31.1973 15.9603 31.1973 16.917C31.1973 17.8737 30.4273 18.667 29.4473 18.667Z" fill="white"/>
<defs>
<linearGradient id="paint0_linear_1068_262" x1="36.1667" y1="4.66699" x2="36.1667" y2="33.6834" gradientUnits="userSpaceOnUse">
<stop stop-color="#AD9DFF"/>
<stop offset="1" stop-color="#6243FF"/>
</linearGradient>
<linearGradient id="paint1_linear_1068_262" x1="25.6676" y1="41.1836" x2="25.6676" y2="53.0835" gradientUnits="userSpaceOnUse">
<stop stop-color="#AD9DFF"/>
<stop offset="1" stop-color="#6243FF"/>
</linearGradient>
</defs>
</svg>
