<svg width="56" height="56" viewBox="0 0 56 56" fill="none" xmlns="http://www.w3.org/2000/svg">
<path d="M25.6673 46.4337V9.56699C25.6673 6.06699 24.174 4.66699 20.464 4.66699H11.0373C7.32732 4.66699 5.83398 6.06699 5.83398 9.56699V46.4337C5.83398 49.9337 7.32732 51.3337 11.0373 51.3337H20.464C24.174 51.3337 25.6673 49.9337 25.6673 46.4337Z" fill="url(#paint0_linear_1056_2133)"/>
<path opacity="0.3" d="M50.1673 25.4337V9.56699C50.1673 6.06699 48.674 4.66699 44.964 4.66699H35.5373C31.8273 4.66699 30.334 6.06699 30.334 9.56699V25.4337C30.334 28.9337 31.8273 30.3337 35.5373 30.3337H44.964C48.674 30.3337 50.1673 28.9337 50.1673 25.4337Z" fill="#6243FF"/>
<path opacity="0.3" d="M50.1673 46.4333V39.9C50.1673 36.4 48.674 35 44.964 35H35.5373C31.8273 35 30.334 36.4 30.334 39.9V46.4333C30.334 49.9333 31.8273 51.3333 35.5373 51.3333H44.964C48.674 51.3333 50.1673 49.9333 50.1673 46.4333Z" fill="#6243FF"/>
<defs>
<linearGradient id="paint0_linear_1056_2133" x1="15.7507" y1="4.66699" x2="15.7507" y2="51.3337" gradientUnits="userSpaceOnUse">
<stop stop-color="#AD9DFF"/>
<stop offset="1" stop-color="#6243FF"/>
</linearGradient>
</defs>
</svg>
