<svg width="56" height="56" viewBox="0 0 56 56" fill="none" xmlns="http://www.w3.org/2000/svg">
<path opacity="0.3" d="M47.834 23.777H41.0907C35.5607 23.777 31.0573 19.2737 31.0573 13.7437V7.00033C31.0573 5.71699 30.0073 4.66699 28.724 4.66699H18.8307C11.644 4.66699 5.83398 9.33366 5.83398 17.6637V38.337C5.83398 46.667 11.644 51.3337 18.8307 51.3337H37.1707C44.3573 51.3337 50.1673 46.667 50.1673 38.337V26.1103C50.1673 24.827 49.1173 23.777 47.834 23.777Z" fill="#6243FF"/>
<path d="M36.8672 5.15681C35.9106 4.20015 34.2539 4.85348 34.2539 6.18348V14.3268C34.2539 17.7335 37.1472 20.5568 40.6706 20.5568C42.8872 20.5801 45.9672 20.5801 48.6039 20.5801C49.9339 20.5801 50.6339 19.0168 49.7006 18.0835C46.3406 14.7001 40.3206 8.61015 36.8672 5.15681Z" fill="url(#paint0_linear_1068_240)"/>
<path d="M31.5 32.083H17.5C16.5433 32.083 15.75 31.2897 15.75 30.333C15.75 29.3763 16.5433 28.583 17.5 28.583H31.5C32.4567 28.583 33.25 29.3763 33.25 30.333C33.25 31.2897 32.4567 32.083 31.5 32.083Z" fill="#6243FF"/>
<path d="M26.8333 41.417H17.5C16.5433 41.417 15.75 40.6237 15.75 39.667C15.75 38.7103 16.5433 37.917 17.5 37.917H26.8333C27.79 37.917 28.5833 38.7103 28.5833 39.667C28.5833 40.6237 27.79 41.417 26.8333 41.417Z" fill="#6243FF"/>
<defs>
<linearGradient id="paint0_linear_1068_240" x1="42.1908" y1="4.70215" x2="42.1908" y2="20.5801" gradientUnits="userSpaceOnUse">
<stop stop-color="#AD9DFF"/>
<stop offset="1" stop-color="#6243FF"/>
</linearGradient>
</defs>
</svg>
