<svg width="56" height="56" viewBox="0 0 56 56" fill="none" xmlns="http://www.w3.org/2000/svg">
<g clip-path="url(#clip0_1030_468)">
<path d="M9.3335 25.6673V44.334C9.3335 44.9528 9.57933 45.5463 10.0169 45.9839C10.4545 46.4215 11.048 46.6673 11.6668 46.6673H30.3335M9.3335 14.0007V11.6673C9.3335 11.0485 9.57933 10.455 10.0169 10.0174C10.4545 9.57982 11.048 9.33398 11.6668 9.33398H14.0002M25.6668 9.33398H30.3335M42.0002 9.33398H44.3335C44.9523 9.33398 45.5458 9.57982 45.9834 10.0174C46.421 10.455 46.6668 11.0485 46.6668 11.6673V14.0007M46.6668 25.6673V30.334M46.6668 42.0006V44.334C46.6668 44.9528 46.421 45.5463 45.9834 45.9839C45.5458 46.4215 44.9523 46.6673 44.3335 46.6673H42.0002" stroke="#6243FF" stroke-width="2" stroke-linecap="round" stroke-linejoin="round"/>
<path d="M15 30H24.625C24.9897 30 25.3394 30.1449 25.5973 30.4027C25.8551 30.6606 26 31.0103 26 31.375V41" stroke="#6243FF" stroke-width="2" stroke-linecap="round" stroke-linejoin="round"/>
</g>
<defs>
<clipPath id="clip0_1030_468">
<rect width="56" height="56" fill="white"/>
</clipPath>
</defs>
</svg>
